<svg xmlns="http://www.w3.org/2000/svg" viewBox="0 0 256 256"><g><ellipse cx="128" cy="128" rx="120" ry="120" fill="#222"/><path d="M128 32c-53 0-96 43-96 96 0 53 43 96 96 96s96-43 96-96c0-53-43-96-96-96zm0 176c-44.2 0-80-35.8-80-80s35.8-80 80-80 80 35.8 80 80-35.8 80-80 80z" fill="#4caf50"/><path d="M128 56c-39.8 0-72 32.2-72 72s32.2 72 72 72 72-32.2 72-72-32.2-72-72-72zm0 128c-30.9 0-56-25.1-56-56s25.1-56 56-56 56 25.1 56 56-25.1 56-56 56z" fill="#fff"/><text x="50%" y="55%" text-anchor="middle" fill="#4caf50" font-size="48" font-family="Arial, Helvetica, sans-serif" dy=".3em">MERN</text></g></svg>